<svg id="Layer_1" data-name="Layer 1" xmlns="http://www.w3.org/2000/svg" viewBox="0 0 610.5 95.42"><defs><style>.cls-1{fill:none;stroke-width:1.25px;}.cls-1,.cls-3{stroke:#fff;stroke-miterlimit:10;}.cls-2{fill:#fff;}.cls-3{fill:#464546;stroke-linecap:round;stroke-width:2px;}</style></defs><title>Enpira Footer Image</title><polyline class="cls-1" points="-0.7 73.16 39.49 60.85 81.18 72.08 113.3 51.83 141.8 63.58 184.47 50.33 226.14 60.83 258.8 40.99 291.97 64.33 323.43 33.08 355.8 67.2 388.68 43.33 424.68 39.33 458.43 53.83 495.93 36.7 533.3 60.45 576.05 47.45 611.3 56.1"/><circle class="cls-2" cx="576.06" cy="47.51" r="1.8"/><circle class="cls-2" cx="533.2" cy="60.33" r="1.8"/><circle class="cls-2" cx="495.89" cy="36.81" r="1.8"/><circle class="cls-2" cx="424.59" cy="39.46" r="1.8"/><circle class="cls-2" cx="458.45" cy="53.63" r="1.8"/><circle class="cls-2" cx="388.73" cy="43.49" r="1.8"/><circle class="cls-2" cx="355.81" cy="67.13" r="1.8"/><circle class="cls-2" cx="291.89" cy="64.06" r="1.8"/><circle class="cls-2" cx="258.82" cy="41.05" r="1.8"/><circle class="cls-2" cx="226.22" cy="60.83" r="1.8"/><circle class="cls-2" cx="184.55" cy="50.37" r="1.8"/><circle class="cls-2" cx="141.87" cy="63.52" r="1.8"/><circle class="cls-2" cx="113.3" cy="51.83" r="1.8"/><circle class="cls-2" cx="81.27" cy="71.9" r="1.8"/><circle class="cls-2" cx="39.46" cy="60.69" r="1.8"/><line class="cls-3" x1="323.45" y1="24.24" x2="323.45" y2="28.49"/><line class="cls-3" x1="327.47" y1="30.66" x2="330.72" y2="28.16"/><line class="cls-3" x1="319.23" y1="30.66" x2="315.98" y2="28.16"/><circle class="cls-2" cx="323.45" cy="33.19" r="1.8"/></svg>